<svg width="851" height="851" viewBox="0 0 851 851" fill="none" xmlns="http://www.w3.org/2000/svg">
<g clip-path="url(#clip0_6_19)">
<path d="M385.32 2.57335C440.933 -2.65332 497.587 2.93335 550.96 19.4667C593.72 32.5734 634.293 52.6534 670.813 78.4534C736.867 125.053 789.227 190.84 819.547 265.8C838.96 313.213 849.173 364.2 850.667 415.373V436.4C849.093 487.28 838.973 537.973 819.707 585.147C789.24 660.707 736.36 726.96 669.653 773.707C631.547 800.467 589.027 820.933 544.293 833.88C509.307 844.147 472.973 849.413 436.573 850.667H416.64C345.027 849.067 273.84 829.36 212.013 793.12C130.627 745.933 65.76 670.96 30.9733 583.547C-9.88 482.32 -9.37333 365.227 32.3733 264.36C65.5733 183.04 124.867 112.693 199.227 65.9734C255.12 30.6 319.453 8.68002 385.32 2.57335ZM346.453 26.3867C330.4 32.1334 314.653 39.8534 302.053 51.5067C290.147 62.3334 282.987 78.52 283.907 94.6667C284.293 104.027 288.88 112.76 295.16 119.533C299.107 123.92 304.773 126.067 309.867 128.8C318.333 133.2 327.8 135.467 337.32 135.92C370.613 137.6 404.16 138.84 437.32 134.56C456.52 131.933 475.573 127.08 493 118.453C502.64 113.72 511.493 107.587 520.067 101.173C524.973 97.5067 527.427 91.6267 529.72 86.1467C534.333 74.6 533.147 60.5467 525.173 50.7467C511.933 33.9334 491.147 25.4934 470.973 20.4C470.947 25.7334 474.507 30.12 475.347 35.28C477.373 46.0534 473.92 57.3467 467.6 66.12C461.08 75.4 450.333 80.32 440.093 84.32C418.04 92.1467 393.747 94.1067 370.827 89.2667C357.4 86.2267 343.973 79.6534 336.12 67.92C331.72 61.5067 328.693 52.9333 332.173 45.4267C334.68 38.8933 341 35.1334 347.013 32.28C364.6 23.7467 385.64 22.3867 404 29.3067C410.813 31.9734 418.667 34.68 422.48 41.4267C425.147 45.8934 422.387 51.6934 418.133 54C410.28 58.44 400.893 59.8667 392 58.7333C384.987 57.6534 377.347 56.04 372.387 50.5334C386.347 52.5334 402.64 55.7067 414.76 46.4134C414.293 43.68 411.453 42.56 409.293 41.4134C390.427 32.8534 367.32 33.4667 349.28 43.8267C346.32 45.72 342.413 47.9734 342.48 51.9734C342.413 57.9333 346.707 62.7067 350.707 66.6267C361.067 76.1467 375.64 78.8533 389.24 79.5733C408.8 80.4934 429 78.2267 446.773 69.5467C459.533 63.96 468.413 49.9467 466.213 35.8934C464.893 25.0934 454.827 16.2267 444 15.8534C411.253 12.9467 377.64 15.5867 346.453 26.3867ZM228.333 63.12C220.307 64.5334 211.893 65.7733 204.84 70.16C180.36 85.4267 157.493 103.253 136.6 123.147C131.413 127.56 130.933 134.987 131.187 141.32C131.533 149.68 136.72 157.413 144.04 161.333C153.76 166.667 164.573 169.893 175.493 171.573C178.267 172.12 180.987 171.253 183.507 170.133C197.387 163.867 213.093 160.907 228.213 163.587C237.787 165.253 247.493 168.16 255.227 174.267C263.213 180.587 267.453 191.8 264.293 201.693C259 219.973 242.96 233.733 225.187 239.413C217.2 242.173 208.147 241.933 200.573 238.027C192.667 234.293 187.507 225.96 186.8 217.36C186.44 209.6 190.76 202.427 196.547 197.56C192 203.573 188.707 210.92 190.227 218.64C191.307 228 199.907 235.533 209.24 235.867C222.187 237.32 234.533 230.88 243.76 222.293C251.747 214.867 258.733 204.72 257.827 193.307C257.893 185.853 252 180.053 245.76 176.933C235.373 171.893 223.507 170.893 212.12 171.533C176.347 173.507 144.16 205.107 143.68 241.333C142.8 255.6 147.12 270.08 156 281.32C171.613 301.507 197.267 313.147 222.707 312.347C237.027 312.533 250.893 306.907 262.16 298.293C277.613 286.4 289.573 270.48 298.573 253.307C312.2 226.747 320.427 196.653 317.84 166.64C316.813 157.24 314.613 147.173 307.747 140.2C301.96 134.147 293.533 131.507 285.387 130.747C264.32 128.707 243.48 133.413 222.667 135.96C213.573 137.12 203.747 137.053 195.533 132.453C187.387 127.933 183.987 117.067 187.347 108.52C194.187 87.72 219.64 76.8533 239.893 83.6934C244.027 84.88 248.48 87.4267 249.44 91.9734C249.48 96.12 246.613 99.7467 243.293 101.947C235.6 106.987 226.187 108.947 217.08 108.52C223.427 106.733 230.107 105.867 236.093 102.96C241.12 100.733 246.04 96.7467 245.773 90.68C229.693 82.6934 207.24 87.04 197.093 102.467C193.293 107.72 192.08 114.747 193.88 120.96C195.667 125.587 200.693 127.933 205.387 128.307C217.96 129.64 230.427 126.693 242.787 124.773C257.36 122.147 272.133 120.627 286.96 121.173C286.387 118.093 285.013 115.28 283.2 112.76C279.213 107.04 277.013 100.227 276.16 93.3467C275.28 86.1734 277.173 79.0934 278.173 72.0267C263.747 62.0933 245.213 60.9067 228.333 63.12ZM522.347 119.693C511.44 132.173 507.773 149.213 506.987 165.347C506.387 169.28 510.16 171.693 512.107 174.587C524.307 190.027 527.413 210.253 529.08 229.307C529.72 234.627 529.44 240.107 530.76 245.307C543.973 265.6 568.107 277.253 592.067 277.48C619.613 277.973 645.6 267.6 671.84 260.707C689.147 256.227 707.387 251.88 725.253 255.747C739.573 258.613 752.507 267.24 760.973 279.093C768.4 289.307 774.093 300.867 777.493 313.04C780.693 324.693 780.2 337.92 773.52 348.307C766.8 359.36 752.587 364.707 740.12 361.88C730.733 360.053 722.467 354.72 715.387 348.507C708.347 342.2 702.747 333.56 702.053 323.933C701.813 315.36 705.813 305.68 714.32 302.427C723.253 298.12 735.053 303.36 737.613 313C733.307 310.067 729.68 305.253 724.053 305.04C717.6 304.093 711.24 308.347 708.973 314.307C706.547 321.373 707.787 329.613 712.427 335.52C721.16 346.613 734.533 356.213 749.333 354.68C760.747 353.893 769.813 343.307 770.307 332.133C771.76 317.827 765.52 304.28 758.427 292.28C750.933 280.133 739.707 269.147 725.28 266.2C707.44 262.533 689.267 267.04 672.067 271.787C667.16 272.973 663.907 277.12 660.627 280.64C650.44 292.107 643.813 307.747 646.267 323.267C646.64 326.947 649.267 329.72 651.52 332.44C669.413 353.573 681.64 379.667 684.853 407.28C689.253 410.907 693.76 414.427 698.533 417.587C710.867 426.307 726.573 428.173 741.293 428.267C757.453 428.373 773.973 422.507 785.013 410.387C801.04 393.44 805.467 369.213 806.64 346.72C808.16 324.213 803.213 301.213 791.613 281.787C781.88 265.307 767.387 251.733 750.387 242.933C733.227 233.76 714.173 227.84 694.707 226.72C682.12 226.107 669.907 229.853 657.4 230.427C642.773 231.147 628.067 227.707 615.093 220.987C605.373 216.72 594.987 212.467 588.24 203.867C579.413 192.44 573.667 178.48 572.253 164.093C571.36 153.853 574.987 141.773 584.893 137.053C591.933 133.16 600.187 136.307 606.44 140.267C616.893 147.133 624.627 157.627 629.747 168.92C632.533 175.733 635.253 184.173 630.827 190.907C627.627 195.44 621.453 195.947 616.653 193.88C619.987 192.867 623.747 192.68 626.587 190.52C630.013 187.467 629.08 182.36 628.253 178.387C624.933 167.133 617.333 157.6 608.68 149.907C603.707 145.6 597.48 141.573 590.613 142.427C585.453 143.64 581.893 148.6 580.72 153.547C579.32 160.893 580.453 168.52 582.76 175.573C585.8 184.613 590.253 193.4 596.973 200.267C605.6 208.28 617.48 213.16 629.347 212.093C640.267 211.44 650.053 205.04 656.813 196.72C667.84 183.627 670.907 164.453 664.773 148.52C659.56 135.24 648.093 125.947 637.333 117.24C619.493 103.68 597.8 92.4267 574.76 94.3334C555.2 96.56 535.373 104.44 522.347 119.693ZM643.627 105.627C644.48 107.747 645.707 109.72 647.587 111.107C655.373 117.467 662.96 124.307 668.587 132.72C677.027 145.333 680.733 161.32 677.453 176.253C674 193.187 663.347 209.213 647.493 216.76C645.44 217.947 642.613 218.68 642.267 221.44C659.933 224.613 677.013 216.467 694.6 216.587C713.813 217.147 732.587 222.453 750.133 230.08C754.013 220.133 753.293 209.013 751.573 198.68C751.16 195.653 747.773 197.693 746.173 198.413C736.933 203.227 725.84 200.693 716.893 196.44C701.84 188.44 691.587 173.093 687.387 156.827C685.88 150 684.4 142.067 688.693 135.92C691.24 146.84 693.693 158.12 700.36 167.427C707.773 178.067 718.267 188.76 732.013 189.493C735.587 189.56 740.28 190.093 742.613 186.707C743.533 180.387 740.6 174.373 737.933 168.84C730.48 154.773 719.88 142.547 707.88 132.16C690.013 116.8 667.44 106.28 643.627 105.627ZM358.72 167.947C343.867 178.24 331.093 192.853 326.6 210.707C322.507 227.64 325.213 245.653 331.88 261.56C341.387 284.64 356.893 304.453 371.36 324.547C380.627 337.56 390.747 350.053 398.453 364.107C404.92 375.947 409.507 389.027 410.427 402.56C411.267 420.933 403.707 439.24 391.12 452.493C379.187 464.853 362.56 472.707 345.373 473.653C333.253 474.227 320.853 470.84 311.013 463.653C298.96 454.947 291.707 440.173 291.72 425.347C292.04 413.107 297.107 401.053 305.4 392.08C313.72 384.24 324.507 378.707 335.933 377.4C344.907 376.4 354.96 380.893 358.267 389.707C361.64 397.227 356.853 405.16 351.707 410.52C347.093 415.32 340.213 420.467 333.32 417.187C342.973 415.947 350.213 408.093 353.893 399.573C357 391.053 348.173 382.8 339.907 383.453C318.853 383.867 299.68 402.667 299.947 423.987C298.693 444.64 316.933 463.213 337.28 463.96C369.267 467.24 399.92 438.707 399.6 406.733C399.827 385.253 388.053 366.213 375.72 349.533C372.067 344.293 365.467 342.72 359.947 340.253C336.507 331.187 310.2 329.547 285.8 335.547C263.787 341.053 243.427 354.64 231.747 374.347C220.013 393.853 217.72 417.973 222.427 439.973C227.24 462.48 240.84 483.4 260.747 495.307C286.813 510.853 317.96 516.613 348.04 514.36C372.507 512.547 396.867 504.693 416.6 489.867C436.267 475.28 453.027 455.16 459.12 431.053C463.933 411.773 460.8 390.64 450.2 373.8C432.32 345.307 409.907 318.947 398.893 286.707C395.773 278.493 396.147 269.56 393.947 261.147C390.28 247.613 393.587 233.2 399.573 220.853C403.387 213.253 408.387 205.64 416.093 201.547C425.573 196.213 438.947 199.333 444.973 208.413C452.92 220.4 450.907 236.813 443.013 248.307C437.84 256.027 428.533 260.973 419.16 259.88C423.947 257.2 429.72 256.28 433.827 252.427C440.547 246.747 444.16 238.013 444.4 229.307C444.76 222.4 443.373 214.747 438.053 209.88C434.133 205.92 428.027 205.16 422.787 206.253C417.6 207.693 413.96 212.067 410.88 216.227C402.507 228.707 398.733 244.6 402.173 259.387C405.36 272.373 415.04 283.027 426.573 289.4C440.773 297.293 457.973 298.44 473.64 294.907C488.907 291.427 503.093 281.92 510.613 267.987C517.507 255.08 518.027 239.827 516.56 225.56C514.76 205.093 506.053 184.733 490.52 170.96C476.373 158.12 457.707 151.067 438.88 149.053C411.093 146.387 381.973 152.053 358.72 167.947ZM101.4 177.32C93.76 185.68 87.9867 196.48 88.24 208.08C88.3867 212.613 88.3867 218.213 92.36 221.267C96.36 222.467 100.2 220.24 103.467 218.2C112.507 212.4 120.813 205.24 127.16 196.533C130.36 192.333 131.747 187.12 132.16 181.92C121.987 182.987 116.787 193.573 107.827 197.44C110.747 190.227 116.44 184.693 122.093 179.56C125.84 176.107 132.4 173.933 136.493 177.987C140.627 183.24 138.16 190.453 135.867 195.973C129.933 208.347 119.24 217.76 107.893 225.133C102.867 228.293 96.7333 231.48 90.6667 229.467C85.2 228.133 82.84 222.56 80.1867 218.213C66.6667 227.333 56.7067 240.987 50.6667 256.027C42.36 276.733 38.7867 299.373 39.7867 321.627L41.5467 322.013C44.9867 319.373 46.8133 315.253 49.4667 311.907C67.6667 287.133 91.4667 266.373 118.787 252.2C123.16 249.813 128.013 248.347 132.253 245.72C133.24 239.84 133.067 233.787 134.6 227.987C139.16 207.08 152.187 188.373 169.88 176.427C168.653 175.187 167.307 173.96 165.48 173.827C152.827 171.307 139.253 167.733 130.387 157.667C119.32 161.733 109.36 168.667 101.4 177.32ZM112.04 262.747C81.3467 284.373 54.9867 313.32 39.8933 347.96C28.4933 373.467 27.9733 402.76 34.24 429.667C38.1067 444.24 43.6533 459.667 55.9733 469.24C64.0667 475.787 75.48 476.133 85.08 473.173C97.1333 469.24 107.307 461.013 115.587 451.587C129.8 435.173 137.613 413.947 140.333 392.6C141.587 379.907 141.853 366.347 136.027 354.64C131.693 346.013 124.067 338.253 114.28 336.427C101.24 334.187 87.8133 340.2 79.2667 349.973C68.08 362.84 65.4667 380.987 66.8267 397.467C67.1067 403.693 71.72 410.413 78.5867 409.893C89.9867 410.213 96.3333 399.493 103.933 392.84C102.12 401.48 95.5467 408.867 87.9734 413.133C80.9067 417.16 71.08 416.88 65.3467 410.693C59.8667 404.573 58.8133 395.92 58.6267 388.04C58.52 372.84 62.1733 357.08 71.5333 344.827C79.1733 334.973 90.7867 328.493 102.947 326.187C117.88 323.387 133.6 330.96 141.947 343.4C151.16 356.667 153.667 373.467 152.307 389.28C150.347 411.467 143.2 433.413 130.573 451.84C126.907 457.493 121.2 461.853 119.16 468.467C106.053 505.68 100.693 546.067 106.427 585.24C111.64 621.733 133.107 654.307 161.013 677.693C181.947 695.053 208.347 707.52 236.013 706.787C259.133 706.067 282.053 699.227 301.92 687.4C316.907 678.187 330.733 664.653 334.827 646.973C339.44 626.907 336 605.827 329.36 586.6C321.04 562.92 307.88 540.867 290.613 522.613C287.133 518.787 281.667 518.24 277.133 516.293C262.347 510.467 247.787 502.907 236.72 491.267C224.707 478.787 216.667 462.92 212.24 446.267C212.28 444.373 210.147 443.133 208.84 444.747C200.893 452.987 194.107 462.333 188.027 472.027C179.093 486.693 171.067 502.2 167.04 519C159.667 549.787 163.413 584.133 181.133 610.84C190.053 624.027 202.52 635.493 217.88 640.52C226.227 643.387 235.907 644 243.947 639.853C254.133 634.573 260.813 623.373 260.667 611.907C261.08 597.467 252.347 584.64 241.907 575.453C236.467 570.787 230.227 565.867 222.72 565.773C214.453 565.253 206.667 570.533 202.853 577.653C200.96 581.627 200.733 586.12 199.667 590.36C196.427 585.8 196.8 579.827 198.893 574.88C203.773 561.747 220.293 554.52 233.213 560.093C250.227 567.267 264.2 582.093 269.56 599.867C274.2 614.427 269.973 631.147 259.627 642.253C250.347 651.907 236.053 656.587 222.893 653.96C203.253 650.187 185.76 637.987 174.24 621.8C161.987 605.213 155.147 585.08 152.827 564.693C149.827 537.147 156.627 508.92 170.467 485.04C180.76 466.973 193.427 449.827 210.213 437.28C206.067 411.467 211.64 383.907 227.227 362.707C225.72 348.347 220.76 333.547 209.96 323.507C194.72 320.48 179.56 315.573 166.813 306.387C148.267 293.947 135.28 273.44 132.827 251.147C125.027 253.187 118.747 258.533 112.04 262.747ZM494.24 312.947C485.707 317.827 477.373 323.467 471.08 331.133C463.16 340.627 457.853 352.107 454.96 364.08C466.72 381.04 473.84 401.96 471.173 422.72C470.8 426.853 469.147 431.347 471.573 435.187C479.6 451.053 491.427 464.907 505.347 475.92C517.693 485.2 532.587 490.907 547.88 492.88C560.653 494.373 574.493 494.053 585.893 487.36C601.64 478.08 610.987 460.587 613.787 442.92C616.04 427.333 614.573 410.773 607.347 396.6C601.493 384.893 590.6 375.013 577.32 373.067C569.507 371.48 561.173 373.933 555.453 379.48C544.787 388.347 540.907 406.373 550.947 417.093C554.4 421.68 560.56 421.093 565.28 423.453C561.627 424.773 557.573 426.04 553.76 424.507C544.44 421.627 539.093 411.96 537.893 402.773C535.987 383.187 552.067 363.52 571.973 362.547C587.773 362.373 603.347 370.587 612.427 383.493C633.267 413.013 631.067 456.213 608.187 484C605.253 487.747 601.267 490.44 598.12 493.973C595.6 499.44 595.027 505.56 593.787 511.4C589.48 537.6 589.707 564.667 595.027 590.693C599.213 611.933 611.707 631.48 629.6 643.747C638.88 650.04 650.187 653.013 661.36 652.88C681.373 653.067 700.787 644.72 715.987 632C736.44 614.96 750.787 591.533 759.84 566.707C767.88 544.373 772.347 520.307 769.827 496.573C767.787 479.653 761.467 461.867 747.413 451.267C738.08 443.893 724.613 441.827 713.8 447.08C701.027 453.173 691.827 464.36 682.533 474.667C677.627 479.667 676.947 486.92 674.773 493.267C668.667 512.96 662.293 533.56 665.64 554.4C667.227 565.427 673.08 576.76 683.547 581.653C691.653 584.947 700.2 580.88 706.88 576.307C724.747 563.88 736.56 543.133 738.373 521.467C738.613 516.387 738.893 510.893 736.373 506.293C733.16 500.4 724.493 499.52 719.387 503.36C713.587 507.587 709.853 513.987 707.107 520.48C702.493 532.08 698.987 544.68 700.253 557.253C701.347 563.147 708.187 559.68 712.067 559.507C709.16 562.44 704.76 565.667 700.48 563.52C695.4 560.973 695.04 554.333 694.84 549.347C695.093 536.667 698 524.013 703.147 512.44C706.68 505.04 711.68 497.533 719.573 494.36C727.667 490.787 738.2 493.547 743.187 500.933C747.133 506.907 748.093 514.36 747.747 521.387C746.373 542.2 737.2 562.36 722.56 577.187C715.347 584.093 706.773 589.853 697.187 592.84C686.08 596.36 674 591.067 666.493 582.76C656.147 571.253 652.773 555.16 652.893 540.08C653.56 517.08 662.28 495.467 668.173 473.507C672.573 457.867 673.933 441.533 673.867 425.347C673.76 405.027 669.787 384.48 660.32 366.373C649.16 344.933 633 325.827 612.84 312.347C601.053 304.56 587.413 299.773 573.44 297.907C546.347 294.427 518.093 299.52 494.24 312.947ZM815.307 371.907C810.987 393.92 799.973 416.307 779.907 427.853C776.52 430.173 771.427 431.04 770.067 435.427C767.627 442.08 766.88 449.187 766.12 456.173C780.747 477.827 784.28 505.293 780.573 530.733C779.64 540.413 776.493 549.707 775.36 559.347C779.84 558.013 783.72 555.36 787.333 552.493C803.32 540.533 817.787 525.64 825.933 507.173C831.16 495.773 831.853 483 832.133 470.667C832.027 460.787 831.84 450.52 827.973 441.267C826.427 438.067 824.067 434.173 820.08 434.107C816.28 433.613 813.853 437.187 811.787 439.787C802.573 453.773 796.613 469.92 794.893 486.6C794.307 493.187 793.467 499.947 794.827 506.507C795.4 508.24 796.027 510.827 798.4 510.453C801.573 507.893 803.053 503.933 804.493 500.253C808.267 489.76 810.213 478.72 811.627 467.693C811.96 464.787 812.707 461.96 814.053 459.36C816.253 471.067 814.293 483.053 811.987 494.573C810.373 501.28 808.533 508.213 804.347 513.827C801.853 517.147 796.827 518.747 793.307 516.053C788 512.12 786.947 504.88 786.707 498.72C786.533 479.427 791.067 460 800.373 443.04C803.813 436.64 807.533 429.36 814.72 426.56C819.053 424.68 823.76 426.253 828.067 427.4C832.84 419.08 836.28 409.747 835.947 400.013C836.16 386.213 829.027 373.013 818.36 364.52C815.773 365.987 816.133 369.413 815.307 371.907ZM32.0667 461.093C29.9067 464.387 28.88 468.253 27.7867 472C23.4667 487.16 22.12 503.227 24.24 518.867C25.5867 529.293 29.8533 539.053 34.4667 548.413C38.76 556.88 43.9467 565.213 51.4 571.267C53.2133 572.867 56.64 574.107 58.2667 571.627C61.9333 567.307 63 561.48 63.8533 556.053C65.84 539.533 63 521.853 53.6133 507.867C51.28 503.893 46.76 502.613 42.5467 501.733C48.9467 497.24 56.2533 502.88 59.7333 508.387C68.0667 520.747 72.1733 535.8 71.9733 550.667C71.56 561.72 69.1333 573.84 60.1733 581.267C69.8133 595.507 83.32 610.16 101.4 612.013C99.5867 603.147 97.0267 594.44 95.9867 585.44C91.4133 550.2 96.68 514.093 108.427 480.707C108.907 479.04 109.24 477.347 109.44 475.64C106.693 475.253 104.507 477.133 102.227 478.32C91.2667 484.867 78 488.947 65.24 486.2C53.8 483.813 43.68 476.427 37.3867 466.627C35.8267 464.613 34.8133 461.72 32.0667 461.093ZM441.787 484.413C437.8 486.467 434.8 489.893 431.427 492.76C416.627 505.573 399.027 515.227 380.16 520.493C377.4 521.347 374.267 522.013 372.56 524.587C363.627 536.213 359.2 550.68 357.08 565.04C354.467 585.48 355.267 606.933 362.947 626.28C366.787 636.213 373.707 645.027 383.04 650.333C398.053 659.253 416.347 660.987 433.387 658.613C449.8 656.24 466.147 648.32 475.693 634.36C482.8 624 484.253 610.68 482.347 598.52C481.013 589.92 474.12 582.213 465.347 580.96C447.8 578.16 429.733 589.173 422.547 605.107C419.613 611.173 420.333 618.187 417.92 624.413C415.28 618.28 414.96 611.36 416.827 604.973C421.4 587.013 438.28 574.093 456.2 571.44C467.933 569.627 481.08 574.133 487.667 584.36C494.187 594.52 495.293 607.267 493.453 618.96C491.333 633.08 483.653 646.253 472.32 654.947C456.787 666.973 436.707 672.2 417.253 671.747C411.013 671.72 404.84 669.587 398.613 670.667C390.76 671.733 382.787 672.04 375.093 674.053C360.707 677.627 347.013 683.493 333.533 689.56C311 700.827 291.973 720.173 282.88 743.853C277 759.52 277.133 778.08 286.227 792.52C297.547 810.68 316.147 823.013 335.48 831.32C342.72 834.72 350.72 835.747 358.52 837.013C373.147 839.347 387.907 840.867 402.707 841.68C412.347 842.213 421.853 840.08 431.227 838.133C444.6 835.28 456.493 827.613 466.107 818.08C475.613 808.68 483.48 797.12 486.68 783.987C488.907 774.093 488.467 763.107 483.093 754.24C474.773 740.347 459.333 731.76 443.413 730.16C431.227 729.147 418.827 726.733 406.707 729.533C384.08 733.053 359.893 739.72 344.56 757.96C338.147 764.76 335.547 775.453 340.16 783.933C346.107 794.32 356.693 801.16 367.547 805.6C379.36 810.24 392.68 812.64 405.173 809.44C413.467 807.44 420.293 798.307 416.747 789.813C411.68 780.04 399.693 776.28 389.307 776.867C381.813 776.68 375 780.08 367.84 781.667C374.587 774.36 384.973 771.773 394.6 771.6C405.747 772 418.347 776.76 423.213 787.547C428.2 797.987 421.733 811.053 411.56 815.547C396.68 822.6 379.32 819.72 364.373 814.373C350.08 808.893 335.547 799.88 329.52 785.133C325.653 776.453 326.92 766.28 331.48 758.133C339.493 743.613 354.013 733.907 369.013 727.667C395.493 716.84 424.48 715.96 452.32 710.92C473.507 706.8 494.48 700.8 513.907 691.253C532.947 681.813 550.293 668.293 562.52 650.76C573.867 634.547 578.893 614.413 577.853 594.733C576.613 564.813 562.667 536.44 542.627 514.587C535.12 506.893 527.547 498.587 517.24 494.707C508.267 491.347 501.8 483.387 492.427 480.947C475.893 475.92 457.347 476.547 441.787 484.413ZM753.507 606.72C740.733 627.28 723.027 645.387 700.827 655.627C686.52 662.16 670.533 665.96 654.76 664.173C652.8 664.187 650.547 663.32 648.92 664.773C651.107 671 653.88 677.213 653.627 683.987C653.28 697.147 650.587 710.2 646.587 722.72C644.787 728.813 640.907 734.28 640.6 740.773C643.693 739.653 646.667 738.08 648.96 735.693C657.187 727.6 664.253 718.213 668.96 707.64C674.04 696.4 679.573 685.173 687.613 675.72C695.013 666.84 705.56 659.853 717.373 659.253C723.067 658.893 729.92 660.787 732.333 666.52C735.253 672.48 733.067 679.333 730.173 684.867C722.693 699.187 712.2 712.027 699.44 721.973C695.147 725.067 688.48 728.52 683.88 724.107C678.787 717.813 683.827 708.227 690.52 705.387C688.053 710.16 685.867 715.213 686.08 720.72C689.387 721 692.72 720.28 695.12 717.84C705.507 708.533 714.44 697.52 721.24 685.333C723.64 680.853 726.32 675.907 725.307 670.653C723.933 666.867 719.16 667.68 716.013 667.813C704.813 668.853 696.56 677.667 690.093 686.067C679.667 699.453 675.4 716.573 664.147 729.387C655.96 740.173 644.24 747.387 632.48 753.693C627.267 756.267 623.933 761.213 619.853 765.16C618.16 767.04 615.747 768.907 616.067 771.747C627.427 771.667 638.493 768.307 649.36 765.267C669.32 758.747 689.2 749.88 704.48 735.107C713.347 727.133 721.72 718.627 730 710.053C739.8 700.08 746.507 687.587 752.373 675.027C761.533 653.587 768.92 630.4 767.04 606.8C766.24 601.827 766.4 595.96 762.68 592.107C758.72 596.36 756.747 601.96 753.507 606.72ZM576.04 656.16C570.813 657.533 568.547 662.853 565.24 666.587C548.413 686.893 525.04 700.84 500.52 709.92C497.827 710.907 495.173 712.267 493.453 714.64C487.067 722.48 485.32 732.893 485.053 742.733C493.093 751.8 497.907 763.787 497.44 775.973C497.147 788.44 491.827 799.933 486.173 810.773C507.427 818.88 531.24 821.893 553.413 815.8C570.88 810.88 587.52 801.107 598.533 786.48C597.973 785.96 596.867 784.92 596.32 784.4C592.627 785.827 589.28 787.933 585.68 789.547C573.933 794.84 560.293 795.747 547.933 792.107C539.76 789.72 531.813 784.373 528.747 776.12C525.893 769.467 527.387 761.96 529.733 755.4C535.907 738.827 550.427 726.04 567.173 720.787C573.147 718.987 579.813 716.72 585.907 719.293C589.773 720.893 591.16 725.707 590.093 729.507C588.32 736.64 583.24 743.013 576.533 746.107C579.307 740.813 584.107 736.573 585.6 730.653C585.947 728.213 586.813 724.84 583.96 723.587C575.667 722.547 567.707 726.307 560.507 729.973C549.907 736.227 540.853 745.84 536.573 757.507C534.493 763.933 533.227 772.213 538.44 777.533C545.36 785.44 556.747 786.373 566.573 785.893C584.907 784.933 599.427 772.04 612.48 760.44C628.173 746.467 638.44 727.187 642.747 706.733C644.813 695.973 647.427 684.667 644.56 673.827C641.053 662.48 629.813 655.533 618.707 653.213C604.587 650.347 589.667 651.48 576.04 656.16ZM131.653 667.693C131.013 674.373 133 680.907 134.24 687.413C137.227 699.84 140.587 712.427 147.267 723.467C154.293 735.107 163.84 745.227 175.013 752.987C184.68 759.56 196.027 764.867 208 763.747C212.293 763.293 218.387 763.347 220.2 758.507C221.533 753.373 217.653 749.027 214.48 745.507C207.347 737.787 198.573 731.853 189.76 726.24C186.307 724.267 182.667 721.827 178.493 722.293C179.587 727.213 183.427 730.84 185.587 735.28C179.933 732.96 175.507 728.12 173.067 722.6C171.373 719.507 174.32 716.293 177.48 716.48C185.773 716.627 193.093 721.24 200.027 725.333C210.573 732 222.093 739.28 227.307 751.147C229.947 756.747 227.4 762.773 224.12 767.453C236.96 777 253.053 781.293 268.907 781.693C268.133 774.973 267 768.2 267.76 761.413C269.52 743.587 277.667 726.8 289.08 713.16C290.573 711.267 292.48 709.28 291.92 706.653C286.187 707.2 281.147 710.227 275.68 711.773C254.04 718.653 230.493 721.773 208.307 715.613C180.36 708.467 155.48 691.653 136.333 670.347C135.107 668.947 133.573 667.813 131.653 667.693Z" fill="#1B062E"/>
<path d="M346.453 26.3866C377.64 15.5866 411.253 12.9466 444 15.8533C454.827 16.2266 464.893 25.0933 466.213 35.8933C468.413 49.9466 459.533 63.96 446.773 69.5466C429 78.2266 408.8 80.4933 389.24 79.5733C375.64 78.8533 361.067 76.1466 350.707 66.6266C346.707 62.7066 342.413 57.9333 342.48 51.9733C342.413 47.9733 346.32 45.72 349.28 43.8266C367.32 33.4666 390.427 32.8533 409.293 41.4133C411.453 42.56 414.293 43.68 414.76 46.4133C402.64 55.7066 386.347 52.5333 372.387 50.5333C377.347 56.04 384.987 57.6533 392 58.7333C400.893 59.8666 410.28 58.44 418.133 54C422.387 51.6933 425.147 45.8933 422.48 41.4266C418.667 34.68 410.813 31.9733 404 29.3066C385.64 22.3866 364.6 23.7466 347.013 32.28C341 35.1333 334.68 38.8933 332.173 45.4266C328.693 52.9333 331.72 61.5066 336.12 67.92C343.973 79.6533 357.4 86.2266 370.827 89.2666C393.747 94.1066 418.04 92.1466 440.093 84.32C450.333 80.32 461.08 75.4 467.6 66.12C473.92 57.3466 477.373 46.0533 475.347 35.28C474.507 30.12 470.947 25.7333 470.973 20.4C491.147 25.4933 511.933 33.9333 525.173 50.7466C533.147 60.5466 534.333 74.6 529.72 86.1466C527.427 91.6266 524.973 97.5066 520.067 101.173C511.493 107.587 502.64 113.72 493 118.453C475.573 127.08 456.52 131.933 437.32 134.56C404.16 138.84 370.613 137.6 337.32 135.92C327.8 135.467 318.333 133.2 309.867 128.8C304.773 126.067 299.107 123.92 295.16 119.533C288.88 112.76 284.293 104.027 283.907 94.6666C282.987 78.52 290.147 62.3333 302.053 51.5066C314.653 39.8533 330.4 32.1333 346.453 26.3866Z" fill="#8422D9"/>
<path d="M228.333 63.12C245.213 60.9066 263.747 62.0933 278.173 72.0266C277.173 79.0933 275.28 86.1733 276.16 93.3466C277.013 100.227 279.213 107.04 283.2 112.76C285.013 115.28 286.387 118.093 286.96 121.173C272.133 120.627 257.36 122.147 242.787 124.773C230.427 126.693 217.96 129.64 205.387 128.307C200.693 127.933 195.667 125.587 193.88 120.96C192.08 114.747 193.293 107.72 197.093 102.467C207.24 87.04 229.693 82.6933 245.773 90.68C246.04 96.7466 241.12 100.733 236.093 102.96C230.107 105.867 223.427 106.733 217.08 108.52C226.187 108.947 235.6 106.987 243.293 101.947C246.613 99.7466 249.48 96.12 249.44 91.9733C248.48 87.4266 244.027 84.88 239.893 83.6933C219.64 76.8533 194.187 87.72 187.347 108.52C183.987 117.067 187.387 127.933 195.533 132.453C203.747 137.053 213.573 137.12 222.667 135.96C243.48 133.413 264.32 128.707 285.387 130.747C293.533 131.507 301.96 134.147 307.747 140.2C314.613 147.173 316.813 157.24 317.84 166.64C320.427 196.653 312.2 226.747 298.573 253.307C289.573 270.48 277.613 286.4 262.16 298.293C250.893 306.907 237.027 312.533 222.707 312.347C197.267 313.147 171.613 301.507 156 281.32C147.12 270.08 142.8 255.6 143.68 241.333C144.16 205.107 176.347 173.507 212.12 171.533C223.507 170.893 235.373 171.893 245.76 176.933C252 180.053 257.893 185.853 257.827 193.307C258.733 204.72 251.747 214.867 243.76 222.293C234.533 230.88 222.187 237.32 209.24 235.867C199.907 235.533 191.307 228 190.227 218.64C188.707 210.92 192 203.573 196.547 197.56C190.76 202.427 186.44 209.6 186.8 217.36C187.507 225.96 192.667 234.293 200.573 238.027C208.147 241.933 217.2 242.173 225.187 239.413C242.96 233.733 259 219.973 264.293 201.693C267.453 191.8 263.213 180.587 255.227 174.267C247.493 168.16 237.787 165.253 228.213 163.587C213.093 160.907 197.387 163.867 183.507 170.133C180.987 171.253 178.267 172.12 175.493 171.573C164.573 169.893 153.76 166.667 144.04 161.333C136.72 157.413 131.533 149.68 131.187 141.32C130.933 134.987 131.413 127.56 136.6 123.147C157.493 103.253 180.36 85.4266 204.84 70.16C211.893 65.7733 220.307 64.5333 228.333 63.12Z" fill="#8422D9"/>
<path d="M522.347 119.693C535.373 104.44 555.2 96.56 574.76 94.3333C597.8 92.4267 619.493 103.68 637.333 117.24C648.093 125.947 659.56 135.24 664.773 148.52C670.907 164.453 667.84 183.627 656.813 196.72C650.053 205.04 640.267 211.44 629.347 212.093C617.48 213.16 605.6 208.28 596.973 200.267C590.253 193.4 585.8 184.613 582.76 175.573C580.453 168.52 579.32 160.893 580.72 153.547C581.893 148.6 585.453 143.64 590.613 142.427C597.48 141.573 603.707 145.6 608.68 149.907C617.333 157.6 624.933 167.133 628.253 178.387C629.08 182.36 630.013 187.467 626.587 190.52C623.747 192.68 619.987 192.867 616.653 193.88C621.453 195.947 627.627 195.44 630.827 190.907C635.253 184.173 632.533 175.733 629.747 168.92C624.627 157.627 616.893 147.133 606.44 140.267C600.187 136.307 591.933 133.16 584.893 137.053C574.987 141.773 571.36 153.853 572.253 164.093C573.667 178.48 579.413 192.44 588.24 203.867C594.987 212.467 605.373 216.72 615.093 220.987C628.067 227.707 642.773 231.147 657.4 230.427C669.907 229.853 682.12 226.107 694.707 226.72C714.173 227.84 733.227 233.76 750.387 242.933C767.387 251.733 781.88 265.307 791.613 281.787C803.213 301.213 808.16 324.213 806.64 346.72C805.467 369.213 801.04 393.44 785.013 410.387C773.973 422.507 757.453 428.373 741.293 428.267C726.573 428.173 710.867 426.307 698.533 417.587C693.76 414.427 689.253 410.907 684.853 407.28C681.64 379.667 669.413 353.573 651.52 332.44C649.267 329.72 646.64 326.947 646.267 323.267C643.813 307.747 650.44 292.107 660.627 280.64C663.907 277.12 667.16 272.973 672.067 271.787C689.267 267.04 707.44 262.533 725.28 266.2C739.707 269.147 750.933 280.133 758.427 292.28C765.52 304.28 771.76 317.827 770.307 332.133C769.813 343.307 760.747 353.893 749.333 354.68C734.533 356.213 721.16 346.613 712.427 335.52C707.787 329.613 706.547 321.373 708.973 314.307C711.24 308.347 717.6 304.093 724.053 305.04C729.68 305.253 733.307 310.067 737.613 313C735.053 303.36 723.253 298.12 714.32 302.427C705.813 305.68 701.813 315.36 702.053 323.933C702.747 333.56 708.347 342.2 715.387 348.507C722.467 354.72 730.733 360.053 740.12 361.88C752.587 364.707 766.8 359.36 773.52 348.307C780.2 337.92 780.693 324.693 777.493 313.04C774.093 300.867 768.4 289.307 760.973 279.093C752.507 267.24 739.573 258.613 725.253 255.747C707.387 251.88 689.147 256.227 671.84 260.707C645.6 267.6 619.613 277.973 592.067 277.48C568.107 277.253 543.973 265.6 530.76 245.307C529.44 240.107 529.72 234.627 529.08 229.307C527.413 210.253 524.307 190.027 512.107 174.587C510.16 171.693 506.387 169.28 506.987 165.347C507.773 149.213 511.44 132.173 522.347 119.693Z" fill="#8422D9"/>
<path d="M643.627 105.627C667.44 106.28 690.013 116.8 707.88 132.16C719.88 142.547 730.48 154.773 737.933 168.84C740.6 174.373 743.533 180.387 742.613 186.707C740.28 190.093 735.587 189.56 732.013 189.493C718.267 188.76 707.773 178.067 700.36 167.427C693.693 158.12 691.24 146.84 688.693 135.92C684.4 142.067 685.88 150 687.387 156.827C691.587 173.093 701.84 188.44 716.893 196.44C725.84 200.693 736.933 203.227 746.173 198.413C747.773 197.693 751.16 195.653 751.573 198.68C753.293 209.013 754.013 220.133 750.133 230.08C732.587 222.453 713.813 217.147 694.6 216.587C677.013 216.467 659.933 224.613 642.267 221.44C642.613 218.68 645.44 217.947 647.493 216.76C663.347 209.213 674 193.187 677.453 176.253C680.733 161.32 677.027 145.333 668.587 132.72C662.96 124.307 655.373 117.467 647.587 111.107C645.707 109.72 644.48 107.747 643.627 105.627Z" fill="#8422D9"/>
<path d="M358.72 167.947C381.973 152.053 411.093 146.387 438.88 149.053C457.707 151.067 476.373 158.12 490.52 170.96C506.053 184.733 514.76 205.093 516.56 225.56C518.027 239.827 517.507 255.08 510.613 267.987C503.093 281.92 488.907 291.427 473.64 294.907C457.973 298.44 440.773 297.293 426.573 289.4C415.04 283.027 405.36 272.373 402.173 259.387C398.733 244.6 402.507 228.707 410.88 216.227C413.96 212.067 417.6 207.693 422.787 206.253C428.027 205.16 434.133 205.92 438.053 209.88C443.373 214.747 444.76 222.4 444.4 229.307C444.16 238.013 440.547 246.747 433.827 252.427C429.72 256.28 423.947 257.2 419.16 259.88C428.533 260.973 437.84 256.027 443.013 248.307C450.907 236.813 452.92 220.4 444.973 208.413C438.947 199.333 425.573 196.213 416.093 201.547C408.387 205.64 403.387 213.253 399.573 220.853C393.587 233.2 390.28 247.613 393.947 261.147C396.147 269.56 395.773 278.493 398.893 286.707C409.907 318.947 432.32 345.307 450.2 373.8C460.8 390.64 463.933 411.773 459.12 431.053C453.027 455.16 436.267 475.28 416.6 489.867C396.867 504.693 372.507 512.547 348.04 514.36C317.96 516.613 286.813 510.853 260.747 495.307C240.84 483.4 227.24 462.48 222.427 439.973C217.72 417.973 220.013 393.853 231.747 374.347C243.427 354.64 263.787 341.053 285.8 335.547C310.2 329.547 336.507 331.187 359.947 340.253C365.467 342.72 372.067 344.293 375.72 349.533C388.053 366.213 399.827 385.253 399.6 406.733C399.92 438.707 369.267 467.24 337.28 463.96C316.933 463.213 298.693 444.64 299.947 423.987C299.68 402.667 318.853 383.867 339.907 383.453C348.173 382.8 357 391.053 353.893 399.573C350.213 408.093 342.973 415.947 333.32 417.187C340.213 420.467 347.093 415.32 351.707 410.52C356.853 405.16 361.64 397.227 358.267 389.707C354.96 380.893 344.907 376.4 335.933 377.4C324.507 378.707 313.72 384.24 305.4 392.08C297.107 401.053 292.04 413.107 291.72 425.347C291.707 440.173 298.96 454.947 311.013 463.653C320.853 470.84 333.253 474.227 345.373 473.653C362.56 472.707 379.187 464.853 391.12 452.493C403.707 439.24 411.267 420.933 410.427 402.56C409.507 389.027 404.92 375.947 398.453 364.107C390.747 350.053 380.627 337.56 371.36 324.547C356.893 304.453 341.387 284.64 331.88 261.56C325.213 245.653 322.507 227.64 326.6 210.707C331.093 192.853 343.867 178.24 358.72 167.947Z" fill="#8422D9"/>
<path d="M101.4 177.32C109.36 168.667 119.32 161.733 130.387 157.667C139.253 167.733 152.827 171.307 165.48 173.827C167.307 173.96 168.653 175.187 169.88 176.427C152.187 188.373 139.16 207.08 134.6 227.987C133.067 233.787 133.24 239.84 132.253 245.72C128.013 248.347 123.16 249.813 118.787 252.2C91.4666 266.373 67.6666 287.133 49.4666 311.907C46.8133 315.253 44.9866 319.373 41.5466 322.013L39.7866 321.627C38.7866 299.373 42.36 276.733 50.6666 256.027C56.7066 240.987 66.6666 227.333 80.1866 218.213C82.84 222.56 85.2 228.133 90.6667 229.467C96.7333 231.48 102.867 228.293 107.893 225.133C119.24 217.76 129.933 208.347 135.867 195.973C138.16 190.453 140.627 183.24 136.493 177.987C132.4 173.933 125.84 176.107 122.093 179.56C116.44 184.693 110.747 190.227 107.827 197.44C116.787 193.573 121.987 182.987 132.16 181.92C131.747 187.12 130.36 192.333 127.16 196.533C120.813 205.24 112.507 212.4 103.467 218.2C100.2 220.24 96.36 222.467 92.36 221.267C88.3867 218.213 88.3867 212.613 88.24 208.08C87.9867 196.48 93.76 185.68 101.4 177.32Z" fill="#8422D9"/>
<path d="M112.04 262.747C118.747 258.533 125.027 253.187 132.827 251.147C135.28 273.44 148.267 293.947 166.813 306.387C179.56 315.573 194.72 320.48 209.96 323.507C220.76 333.547 225.72 348.347 227.227 362.707C211.64 383.907 206.067 411.467 210.213 437.28C193.427 449.827 180.76 466.973 170.467 485.04C156.627 508.92 149.827 537.147 152.827 564.693C155.147 585.08 161.987 605.213 174.24 621.8C185.76 637.987 203.253 650.187 222.893 653.96C236.053 656.587 250.347 651.907 259.627 642.253C269.973 631.147 274.2 614.427 269.56 599.867C264.2 582.093 250.227 567.267 233.213 560.093C220.293 554.52 203.773 561.747 198.893 574.88C196.8 579.827 196.427 585.8 199.667 590.36C200.733 586.12 200.96 581.627 202.853 577.653C206.667 570.533 214.453 565.253 222.72 565.773C230.227 565.867 236.467 570.787 241.907 575.453C252.347 584.64 261.08 597.467 260.667 611.907C260.813 623.373 254.133 634.573 243.947 639.853C235.907 644 226.227 643.387 217.88 640.52C202.52 635.493 190.053 624.027 181.133 610.84C163.413 584.133 159.667 549.787 167.04 519C171.067 502.2 179.093 486.693 188.027 472.027C194.107 462.333 200.893 452.987 208.84 444.747C210.147 443.133 212.28 444.373 212.24 446.267C216.667 462.92 224.707 478.787 236.72 491.267C247.787 502.907 262.347 510.467 277.133 516.293C281.667 518.24 287.133 518.787 290.613 522.613C307.88 540.867 321.04 562.92 329.36 586.6C336 605.827 339.44 626.907 334.827 646.973C330.733 664.653 316.907 678.187 301.92 687.4C282.053 699.227 259.133 706.067 236.013 706.787C208.347 707.52 181.947 695.053 161.013 677.693C133.107 654.307 111.64 621.733 106.427 585.24C100.693 546.067 106.053 505.68 119.16 468.467C121.2 461.853 126.907 457.493 130.573 451.84C143.2 433.413 150.347 411.467 152.307 389.28C153.667 373.467 151.16 356.667 141.947 343.4C133.6 330.96 117.88 323.387 102.947 326.187C90.7866 328.493 79.1733 334.973 71.5333 344.827C62.1733 357.08 58.52 372.84 58.6266 388.04C58.8133 395.92 59.8666 404.573 65.3466 410.693C71.08 416.88 80.9066 417.16 87.9733 413.133C95.5466 408.867 102.12 401.48 103.933 392.84C96.3333 399.493 89.9866 410.213 78.5866 409.893C71.72 410.413 67.1066 403.693 66.8266 397.467C65.4666 380.987 68.08 362.84 79.2666 349.973C87.8133 340.2 101.24 334.187 114.28 336.427C124.067 338.253 131.693 346.013 136.027 354.64C141.853 366.347 141.587 379.907 140.333 392.6C137.613 413.947 129.8 435.173 115.587 451.587C107.307 461.013 97.1333 469.24 85.08 473.173C75.48 476.133 64.0666 475.787 55.9733 469.24C43.6533 459.667 38.1066 444.24 34.24 429.667C27.9733 402.76 28.4933 373.467 39.8933 347.96C54.9866 313.32 81.3466 284.373 112.04 262.747Z" fill="#8422D9"/>
<path d="M494.24 312.947C518.093 299.52 546.347 294.427 573.44 297.907C587.413 299.773 601.053 304.56 612.84 312.347C633 325.827 649.16 344.933 660.32 366.373C669.787 384.48 673.76 405.027 673.867 425.347C673.933 441.533 672.573 457.867 668.173 473.507C662.28 495.467 653.56 517.08 652.893 540.08C652.773 555.16 656.147 571.253 666.493 582.76C674 591.067 686.08 596.36 697.187 592.84C706.773 589.853 715.347 584.093 722.56 577.187C737.2 562.36 746.373 542.2 747.747 521.387C748.093 514.36 747.133 506.907 743.187 500.933C738.2 493.547 727.667 490.787 719.573 494.36C711.68 497.533 706.68 505.04 703.147 512.44C698 524.013 695.093 536.667 694.84 549.347C695.04 554.333 695.4 560.973 700.48 563.52C704.76 565.667 709.16 562.44 712.067 559.507C708.187 559.68 701.347 563.147 700.253 557.253C698.987 544.68 702.493 532.08 707.107 520.48C709.853 513.987 713.587 507.587 719.387 503.36C724.493 499.52 733.16 500.4 736.373 506.293C738.893 510.893 738.613 516.387 738.373 521.467C736.56 543.133 724.747 563.88 706.88 576.307C700.2 580.88 691.653 584.947 683.547 581.653C673.08 576.76 667.227 565.427 665.64 554.4C662.293 533.56 668.667 512.96 674.773 493.267C676.947 486.92 677.627 479.667 682.533 474.667C691.827 464.36 701.027 453.173 713.8 447.08C724.613 441.827 738.08 443.893 747.413 451.267C761.467 461.867 767.787 479.653 769.827 496.573C772.347 520.307 767.88 544.373 759.84 566.707C750.787 591.533 736.44 614.96 715.987 632C700.787 644.72 681.373 653.067 661.36 652.88C650.187 653.013 638.88 650.04 629.6 643.747C611.707 631.48 599.213 611.933 595.027 590.693C589.707 564.667 589.48 537.6 593.787 511.4C595.027 505.56 595.6 499.44 598.12 493.973C601.267 490.44 605.253 487.747 608.187 484C631.067 456.213 633.267 413.013 612.427 383.493C603.347 370.587 587.773 362.373 571.973 362.547C552.067 363.52 535.987 383.187 537.893 402.773C539.093 411.96 544.44 421.627 553.76 424.507C557.573 426.04 561.627 424.773 565.28 423.453C560.56 421.093 554.4 421.68 550.947 417.093C540.907 406.373 544.787 388.347 555.453 379.48C561.173 373.933 569.507 371.48 577.32 373.067C590.6 375.013 601.493 384.893 607.347 396.6C614.573 410.773 616.04 427.333 613.787 442.92C610.987 460.587 601.64 478.08 585.893 487.36C574.493 494.053 560.653 494.373 547.88 492.88C532.587 490.907 517.693 485.2 505.347 475.92C491.427 464.907 479.6 451.053 471.573 435.187C469.147 431.347 470.8 426.853 471.173 422.72C473.84 401.96 466.72 381.04 454.96 364.08C457.853 352.107 463.16 340.627 471.08 331.133C477.373 323.467 485.707 317.827 494.24 312.947Z" fill="#8422D9"/>
<path d="M815.307 371.907C816.133 369.413 815.773 365.987 818.36 364.52C829.027 373.013 836.16 386.213 835.947 400.013C836.28 409.747 832.84 419.08 828.067 427.4C823.76 426.253 819.053 424.68 814.72 426.56C807.533 429.36 803.813 436.64 800.373 443.04C791.067 460 786.533 479.427 786.707 498.72C786.947 504.88 788 512.12 793.307 516.053C796.827 518.747 801.853 517.147 804.347 513.827C808.533 508.213 810.373 501.28 811.987 494.573C814.293 483.053 816.253 471.067 814.053 459.36C812.707 461.96 811.96 464.787 811.627 467.693C810.213 478.72 808.267 489.76 804.493 500.253C803.053 503.933 801.573 507.893 798.4 510.453C796.027 510.827 795.4 508.24 794.827 506.507C793.467 499.947 794.307 493.187 794.893 486.6C796.613 469.92 802.573 453.773 811.787 439.787C813.853 437.187 816.28 433.613 820.08 434.107C824.067 434.173 826.427 438.067 827.973 441.267C831.84 450.52 832.027 460.787 832.133 470.667C831.853 483 831.16 495.773 825.933 507.173C817.787 525.64 803.32 540.533 787.333 552.493C783.72 555.36 779.84 558.013 775.36 559.347C776.493 549.707 779.64 540.413 780.573 530.733C784.28 505.293 780.747 477.827 766.12 456.173C766.88 449.187 767.627 442.08 770.067 435.427C771.427 431.04 776.52 430.173 779.907 427.853C799.973 416.307 810.987 393.92 815.307 371.907Z" fill="#8422D9"/>
<path d="M32.0666 461.093C34.8133 461.72 35.8267 464.613 37.3867 466.627C43.68 476.427 53.8 483.813 65.24 486.2C78 488.947 91.2666 484.867 102.227 478.32C104.507 477.133 106.693 475.253 109.44 475.64C109.24 477.347 108.907 479.04 108.427 480.707C96.68 514.093 91.4133 550.2 95.9866 585.44C97.0266 594.44 99.5867 603.147 101.4 612.013C83.32 610.16 69.8133 595.507 60.1733 581.267C69.1333 573.84 71.56 561.72 71.9733 550.667C72.1733 535.8 68.0667 520.747 59.7333 508.387C56.2533 502.88 48.9466 497.24 42.5466 501.733C46.76 502.613 51.28 503.893 53.6133 507.867C63 521.853 65.84 539.533 63.8533 556.053C63 561.48 61.9333 567.307 58.2667 571.627C56.64 574.107 53.2133 572.867 51.4 571.267C43.9466 565.213 38.76 556.88 34.4667 548.413C29.8533 539.053 25.5866 529.293 24.24 518.867C22.12 503.227 23.4666 487.16 27.7866 472C28.88 468.253 29.9066 464.387 32.0666 461.093Z" fill="#8422D9"/>
<path d="M441.787 484.413C457.347 476.547 475.893 475.92 492.427 480.947C501.8 483.387 508.267 491.347 517.24 494.707C527.547 498.587 535.12 506.893 542.627 514.587C562.667 536.44 576.613 564.813 577.853 594.733C578.893 614.413 573.867 634.547 562.52 650.76C550.293 668.293 532.947 681.813 513.907 691.253C494.48 700.8 473.507 706.8 452.32 710.92C424.48 715.96 395.493 716.84 369.013 727.667C354.013 733.907 339.493 743.613 331.48 758.133C326.92 766.28 325.653 776.453 329.52 785.133C335.547 799.88 350.08 808.893 364.373 814.373C379.32 819.72 396.68 822.6 411.56 815.547C421.733 811.053 428.2 797.987 423.213 787.547C418.347 776.76 405.747 772 394.6 771.6C384.973 771.773 374.587 774.36 367.84 781.667C375 780.08 381.813 776.68 389.307 776.867C399.693 776.28 411.68 780.04 416.747 789.813C420.293 798.307 413.467 807.44 405.173 809.44C392.68 812.64 379.36 810.24 367.547 805.6C356.693 801.16 346.107 794.32 340.16 783.933C335.547 775.453 338.147 764.76 344.56 757.96C359.893 739.72 384.08 733.053 406.707 729.533C418.827 726.733 431.227 729.147 443.413 730.16C459.333 731.76 474.773 740.347 483.093 754.24C488.467 763.107 488.907 774.093 486.68 783.987C483.48 797.12 475.613 808.68 466.107 818.08C456.493 827.613 444.6 835.28 431.227 838.133C421.853 840.08 412.347 842.213 402.707 841.68C387.907 840.867 373.147 839.347 358.52 837.013C350.72 835.747 342.72 834.72 335.48 831.32C316.147 823.013 297.547 810.68 286.227 792.52C277.133 778.08 277 759.52 282.88 743.853C291.973 720.173 311 700.827 333.533 689.56C347.013 683.493 360.707 677.627 375.093 674.053C382.787 672.04 390.76 671.733 398.613 670.667C404.84 669.587 411.013 671.72 417.253 671.747C436.707 672.2 456.787 666.973 472.32 654.947C483.653 646.253 491.333 633.08 493.453 618.96C495.293 607.267 494.187 594.52 487.667 584.36C481.08 574.133 467.933 569.627 456.2 571.44C438.28 574.093 421.4 587.013 416.827 604.973C414.96 611.36 415.28 618.28 417.92 624.413C420.333 618.187 419.613 611.173 422.547 605.107C429.733 589.173 447.8 578.16 465.347 580.96C474.12 582.213 481.013 589.92 482.347 598.52C484.253 610.68 482.8 624 475.693 634.36C466.147 648.32 449.8 656.24 433.387 658.613C416.347 660.987 398.053 659.253 383.04 650.333C373.707 645.027 366.787 636.213 362.947 626.28C355.267 606.933 354.467 585.48 357.08 565.04C359.2 550.68 363.627 536.213 372.56 524.587C374.267 522.013 377.4 521.347 380.16 520.493C399.027 515.227 416.627 505.573 431.427 492.76C434.8 489.893 437.8 486.467 441.787 484.413Z" fill="#8422D9"/>
<path d="M753.507 606.72C756.747 601.96 758.72 596.36 762.68 592.107C766.4 595.96 766.24 601.827 767.04 606.8C768.92 630.4 761.533 653.587 752.373 675.027C746.507 687.587 739.8 700.08 730 710.053C721.72 718.627 713.347 727.133 704.48 735.107C689.2 749.88 669.32 758.747 649.36 765.267C638.493 768.307 627.427 771.667 616.067 771.747C615.747 768.907 618.16 767.04 619.853 765.16C623.933 761.213 627.267 756.267 632.48 753.693C644.24 747.387 655.96 740.173 664.147 729.387C675.4 716.573 679.667 699.453 690.093 686.067C696.56 677.667 704.813 668.853 716.013 667.813C719.16 667.68 723.933 666.867 725.307 670.653C726.32 675.907 723.64 680.853 721.24 685.333C714.44 697.52 705.507 708.533 695.12 717.84C692.72 720.28 689.387 721 686.08 720.72C685.867 715.213 688.053 710.16 690.52 705.387C683.827 708.227 678.787 717.813 683.88 724.107C688.48 728.52 695.147 725.067 699.44 721.973C712.2 712.027 722.693 699.187 730.173 684.867C733.067 679.333 735.253 672.48 732.333 666.52C729.92 660.787 723.067 658.893 717.373 659.253C705.56 659.853 695.013 666.84 687.613 675.72C679.573 685.173 674.04 696.4 668.96 707.64C664.253 718.213 657.187 727.6 648.96 735.693C646.667 738.08 643.693 739.653 640.6 740.773C640.907 734.28 644.787 728.813 646.587 722.72C650.587 710.2 653.28 697.147 653.627 683.987C653.88 677.213 651.107 671 648.92 664.773C650.547 663.32 652.8 664.187 654.76 664.173C670.533 665.96 686.52 662.16 700.827 655.627C723.027 645.387 740.733 627.28 753.507 606.72Z" fill="#8422D9"/>
<path d="M576.04 656.16C589.667 651.48 604.587 650.347 618.707 653.213C629.813 655.533 641.053 662.48 644.56 673.827C647.427 684.667 644.813 695.973 642.747 706.733C638.44 727.187 628.173 746.467 612.48 760.44C599.427 772.04 584.907 784.933 566.573 785.893C556.747 786.373 545.36 785.44 538.44 777.533C533.227 772.213 534.493 763.933 536.573 757.507C540.853 745.84 549.907 736.227 560.507 729.973C567.707 726.307 575.667 722.547 583.96 723.587C586.813 724.84 585.947 728.213 585.6 730.653C584.107 736.573 579.307 740.813 576.533 746.107C583.24 743.013 588.32 736.64 590.093 729.507C591.16 725.707 589.773 720.893 585.907 719.293C579.813 716.72 573.147 718.987 567.173 720.787C550.427 726.04 535.907 738.827 529.733 755.4C527.387 761.96 525.893 769.467 528.747 776.12C531.813 784.373 539.76 789.72 547.933 792.107C560.293 795.747 573.933 794.84 585.68 789.547C589.28 787.933 592.627 785.827 596.32 784.4C596.867 784.92 597.973 785.96 598.533 786.48C587.52 801.107 570.88 810.88 553.413 815.8C531.24 821.893 507.427 818.88 486.173 810.773C491.827 799.933 497.147 788.44 497.44 775.973C497.907 763.787 493.093 751.8 485.053 742.733C485.32 732.893 487.067 722.48 493.453 714.64C495.173 712.267 497.827 710.907 500.52 709.92C525.04 700.84 548.413 686.893 565.24 666.587C568.547 662.853 570.813 657.533 576.04 656.16Z" fill="#8422D9"/>
<path d="M131.653 667.693C133.573 667.813 135.107 668.947 136.333 670.347C155.48 691.653 180.36 708.467 208.307 715.613C230.493 721.773 254.04 718.653 275.68 711.773C281.147 710.227 286.187 707.2 291.92 706.653C292.48 709.28 290.573 711.267 289.08 713.16C277.667 726.8 269.52 743.587 267.76 761.413C267 768.2 268.133 774.973 268.907 781.693C253.053 781.293 236.96 777 224.12 767.453C227.4 762.773 229.947 756.747 227.307 751.147C222.093 739.28 210.573 732 200.027 725.333C193.093 721.24 185.773 716.627 177.48 716.48C174.32 716.293 171.373 719.507 173.067 722.6C175.507 728.12 179.933 732.96 185.587 735.28C183.427 730.84 179.587 727.213 178.493 722.293C182.667 721.827 186.307 724.267 189.76 726.24C198.573 731.853 207.347 737.787 214.48 745.507C217.653 749.027 221.533 753.373 220.2 758.507C218.387 763.347 212.293 763.293 208 763.747C196.027 764.867 184.68 759.56 175.013 752.987C163.84 745.227 154.293 735.107 147.267 723.467C140.587 712.427 137.227 699.84 134.24 687.413C133 680.907 131.013 674.373 131.653 667.693Z" fill="#8422D9"/>
</g>
<defs>
<clipPath id="clip0_6_19">
<rect width="850.667" height="850.667" fill="white"/>
</clipPath>
</defs>
</svg>
